<?xml version="1.0" encoding="UTF-8"?>
<svg xmlns="http://www.w3.org/2000/svg" viewBox="0 0 250 250">
  <path d="M222.17682,134.82829l23.41662-12.14607-3.19748-25.03112-25.74334-6.40991c-1.9816-5.36282-4.42368-10.50373-7.27356-15.37863l11.8203-23.62087-17.29971-18.37109-24.63473,9.96199c-4.69123-3.14666-9.67007-5.89485-14.88628-8.2023l-4.31793-26.03796-24.79403-4.69386-14.05755,22.51225c-5.77186.22145-11.41635.94546-16.89186,2.13073l-18.7873-18.51651-22.8179,10.77607,1.86267,26.51771c-4.44631,3.51122-8.57799,7.40256-12.35252,11.62022l-26.14687-3.94686-12.12606,22.12996,17.05413,20.31136c-1.52977,5.40507-2.60469,10.99906-3.18078,16.73784l-23.41608,12.14607,3.19748,25.03112,25.74277,6.40976c1.98164,5.36313,4.42376,10.50389,7.27376,15.37909l-11.82034,23.62102,17.29971,18.37124,24.63503-9.9623c4.69112,3.14666,9.6698,5.89469,14.88589,8.20199l4.31801,26.03827,24.79403,4.69401,14.05759-22.51256c5.77186-.2216,11.41631-.94562,16.89182-2.13073l18.7873,18.51635,22.8179-10.77591-1.86271-26.51771c4.44619-3.51122,8.57788-7.40241,12.35241-11.62006l26.14722,3.94686,12.1261-22.12996-17.05436-20.31151c1.52969-5.40507,2.60461-10.9989,3.18067-16.738ZM124.99975,199.17443c-40.90011,0-74.17462-33.27444-74.17462-74.17459S84.09964,50.82511,124.99975,50.82511s74.17466,33.2746,74.17466,74.17474-33.27452,74.17459-74.17466,74.17459Z"/>
</svg>
